<svg id="Layer_1" data-name="Layer 1" xmlns="http://www.w3.org/2000/svg" viewBox="0 0 330 250"><circle cx="156.79" cy="119.87" r="101.79" fill="#f2f2f2"/><path d="M225.39,155.08c-2.41.58-4.81,1.29-7.2,2-1,.32-2,.66-3,1l-.61.21h0c-1.31.45-2.61.91-3.91,1.4-11.26,4.15-22.24,9.3-33.44,13.67-6.09,2.38-12.22,4.61-18.41,6.42h0q-3.08.9-6.15,1.64h0a63.9,63.9,0,0,1-8-1.82,58.22,58.22,0,0,0,7,2c-2.91.68-5.85,1.23-8.82,1.62q-3,.42-6.08.6a58.82,58.82,0,0,1-11.47-.39A72.46,72.46,0,0,0,140,190.88a96,96,0,0,0,23-4.62c3.19-1,6.36-2.13,9.51-3.34l1.29-.49c2.19-.85,4.37-1.75,6.53-2.68h0A61.76,61.76,0,0,0,197,172c3.43-1.65,6.85-3.32,10.28-4.94,3.07-1.45,6.15-2.87,9.25-4.22l3.43-1.49a90.51,90.51,0,0,1,10.08-3.78c.66-1.2,1.27-2.43,1.85-3.67A50.82,50.82,0,0,0,225.39,155.08Z" fill="none"/><path d="M215.16,158.13a59.51,59.51,0,0,1-7.85,8.94c-3.43,1.62-6.85,3.29-10.28,4.94a61.76,61.76,0,0,1-16.7,7.73h0c-2.16.93-4.34,1.83-6.53,2.68l-1.29.49a62.25,62.25,0,0,1-20.89-1.22h0a58.22,58.22,0,0,1-7-2,63.9,63.9,0,0,0,8,1.82h0q3.07-.74,6.15-1.64h0c6.19-1.81,12.32-4,18.41-6.42,11.2-4.37,22.18-9.52,33.44-13.67,1.3-.49,2.6-1,3.91-1.4h0Z" fill="none"/><path d="M210.63,159.74A60.75,60.75,0,0,1,197,172a61.76,61.76,0,0,1-16.7,7.73h0a63.63,63.63,0,0,1-27.69,1.72q3.07-.74,6.15-1.64h0c6.19-1.81,12.32-4,18.41-6.42C188.39,169,199.37,163.89,210.63,159.74Z" fill="none"/><path d="M245.36,155.17a19.13,19.13,0,0,0-4.9-1.22,34.39,34.39,0,0,0-8.54,0,50.82,50.82,0,0,0-6.53,1.17c-2.41.58-4.81,1.29-7.2,2-1,.32-2,.66-3,1l-.61.21h0c-1.31.45-2.61.91-3.91,1.4-11.26,4.15-22.24,9.3-33.44,13.67-6.09,2.38-12.22,4.61-18.41,6.42h0q-3.08.9-6.15,1.64h0a63.9,63.9,0,0,1-8-1.82,58.22,58.22,0,0,0,7,2c-2.91.68-5.85,1.23-8.82,1.62q-3,.42-6.08.6a58.82,58.82,0,0,1-11.47-.39c-13.81-1.86-25.87-8.93-36.16-21.45-2.7-3.29-5.18-6.83-7.72-10.32l-.88-1.2a31.58,31.58,0,0,0,3.3,7.51,0,0,0,0,0,0,0l.45.79c.24.43.49.85.74,1.28,5.39,9.2,11.76,16.39,19.12,21.48A52.44,52.44,0,0,0,132.54,191a67.91,67.91,0,0,0,7.42-.09,96,96,0,0,0,23-4.62c3.19-1,6.36-2.13,9.51-3.34l1.29-.49c2.19-.85,4.37-1.75,6.53-2.68h0A61.76,61.76,0,0,0,197,172c3.43-1.65,6.85-3.32,10.28-4.94,3.07-1.45,6.15-2.87,9.25-4.22l3.43-1.49a90.51,90.51,0,0,1,10.08-3.78,33.73,33.73,0,0,1,14.66-1.36,28.27,28.27,0,0,1,3,.62l.12-.25A11.8,11.8,0,0,0,245.36,155.17Z" fill="none"/><path d="M243.46,158l-.47-.13-.22-.06a28.27,28.27,0,0,0-3-.62,33.73,33.73,0,0,0-14.66,1.36c-1.27.37-2.54.8-3.8,1.26-2.1.76-4.2,1.62-6.28,2.52l-3.43,1.49c-3.1,1.35-6.18,2.77-9.25,4.22-3.43,1.62-6.85,3.29-10.28,4.94-5.53,2.67-11.08,5.32-16.7,7.73h0c-2.16.93-4.34,1.83-6.53,2.68l-1.29.49c-3.15,1.21-6.32,2.34-9.51,3.34a96,96,0,0,1-23,4.62,67.91,67.91,0,0,1-7.42.09,55.42,55.42,0,0,1-16-2.95,50.19,50.19,0,0,1-12.5-6.38c-7.36-5.09-13.73-12.28-19.12-21.48-.25-.43-.5-.85-.74-1.28l-.45-.79a0,0,0,0,1,0,0,31.58,31.58,0,0,1-3.3-7.51l.88,1.2c2.54,3.49,5,7,7.72,10.32A67.23,67.23,0,0,0,96.5,175a51.74,51.74,0,0,0,23.72,9.56,58.82,58.82,0,0,0,11.47.39q3.06-.18,6.08-.6c3-.39,5.91-.94,8.82-1.62h0l1-.23h0q3.07-.74,6.15-1.64h0c6.19-1.81,12.32-4,18.41-6.42,11.2-4.37,22.18-9.52,33.44-13.67,1.3-.49,2.6-1,3.91-1.4h0l.61-.21c1-.34,2-.68,3-1,2.39-.76,4.79-1.47,7.2-2,.91-.22,1.81-.42,2.72-.58a37.69,37.69,0,0,1,3.81-.59,34.39,34.39,0,0,1,8.54,0,19.13,19.13,0,0,1,4.9,1.22,11.8,11.8,0,0,1,2.53,1.42l.18.12Z" fill="#1a1a1a" fill-rule="evenodd"/><path d="M246.23,113.7a91.28,91.28,0,0,1,.23,22c-.3,2.72-.71,5.4-1.27,8.06a109.61,109.61,0,0,0-18.82.75l-.69.08c-1.1.14-2.21.3-3.31.49a106.12,106.12,0,0,0-51.52,23.4A107.81,107.81,0,0,0,188.46,58.25c-.17-.42-.34-.82-.52-1.23a105.28,105.28,0,0,0-13.69-23.55A107.55,107.55,0,0,1,192,40.38C220.89,54.62,242,81.16,246.23,113.7Z" fill="#1a1a1a"/></svg>